<mxfile host="app.diagrams.net" modified="2023-12-12T10:49:57.723Z" agent="Mozilla/5.0 (Windows NT 10.0; Win64; x64; rv:120.0) Gecko/20100101 Firefox/120.0" etag="NAZczboZWWqY66olyCfR" version="22.1.7" type="github">
  <diagram name="Page-1" id="cB6-q6-sBfIPuh-v84tD">
    <mxGraphModel dx="1489" dy="703" grid="1" gridSize="10" guides="1" tooltips="1" connect="1" arrows="1" fold="1" page="1" pageScale="1" pageWidth="850" pageHeight="1100" math="0" shadow="0">
      <root>
        <mxCell id="0" />
        <mxCell id="1" parent="0" />
        <mxCell id="i9Y9PTabGPXXXa_qy1XM-1" value="User" style="html=1;dashed=0;whiteSpace=wrap;" vertex="1" parent="1">
          <mxGeometry x="80" y="87.5" width="110" height="50" as="geometry" />
        </mxCell>
        <mxCell id="i9Y9PTabGPXXXa_qy1XM-2" value="Presensi Online" style="shape=ellipse;html=1;dashed=0;whiteSpace=wrap;perimeter=ellipsePerimeter;" vertex="1" parent="1">
          <mxGeometry x="310" y="45" width="150" height="135" as="geometry" />
        </mxCell>
        <mxCell id="i9Y9PTabGPXXXa_qy1XM-4" value="" style="endArrow=classic;html=1;rounded=0;exitX=1;exitY=0.5;exitDx=0;exitDy=0;" edge="1" parent="1" source="i9Y9PTabGPXXXa_qy1XM-1" target="i9Y9PTabGPXXXa_qy1XM-2">
          <mxGeometry width="50" height="50" relative="1" as="geometry">
            <mxPoint x="360" y="410" as="sourcePoint" />
            <mxPoint x="410" y="360" as="targetPoint" />
          </mxGeometry>
        </mxCell>
        <mxCell id="i9Y9PTabGPXXXa_qy1XM-5" value="" style="endArrow=classic;html=1;rounded=0;exitX=1;exitY=0.5;exitDx=0;exitDy=0;" edge="1" parent="1" source="i9Y9PTabGPXXXa_qy1XM-2">
          <mxGeometry width="50" height="50" relative="1" as="geometry">
            <mxPoint x="360" y="410" as="sourcePoint" />
            <mxPoint x="566.0000000000002" y="112.5" as="targetPoint" />
          </mxGeometry>
        </mxCell>
        <mxCell id="i9Y9PTabGPXXXa_qy1XM-6" value="" style="endArrow=classic;html=1;rounded=0;exitX=-0.007;exitY=0.607;exitDx=0;exitDy=0;exitPerimeter=0;entryX=1;entryY=0.75;entryDx=0;entryDy=0;" edge="1" parent="1" source="i9Y9PTabGPXXXa_qy1XM-2" target="i9Y9PTabGPXXXa_qy1XM-1">
          <mxGeometry width="50" height="50" relative="1" as="geometry">
            <mxPoint x="360" y="410" as="sourcePoint" />
            <mxPoint x="410" y="360" as="targetPoint" />
          </mxGeometry>
        </mxCell>
        <mxCell id="i9Y9PTabGPXXXa_qy1XM-7" value="" style="endArrow=classic;html=1;rounded=0;entryX=1.009;entryY=0.582;entryDx=0;entryDy=0;entryPerimeter=0;exitX=0.07;exitY=0.642;exitDx=0;exitDy=0;exitPerimeter=0;" edge="1" parent="1" target="i9Y9PTabGPXXXa_qy1XM-2">
          <mxGeometry width="50" height="50" relative="1" as="geometry">
            <mxPoint x="561.2000000000003" y="123.86000000000001" as="sourcePoint" />
            <mxPoint x="410" y="360" as="targetPoint" />
          </mxGeometry>
        </mxCell>
        <mxCell id="i9Y9PTabGPXXXa_qy1XM-9" value="DFD Presensi Online Level 0" style="text;html=1;align=center;verticalAlign=middle;resizable=0;points=[];autosize=1;strokeColor=none;fillColor=none;" vertex="1" parent="1">
          <mxGeometry x="300" y="200" width="170" height="30" as="geometry" />
        </mxCell>
        <mxCell id="i9Y9PTabGPXXXa_qy1XM-10" value="presensi" style="html=1;dashed=0;whiteSpace=wrap;shape=partialRectangle;right=0;left=0;" vertex="1" parent="1">
          <mxGeometry x="570" y="81.25" width="150" height="62.5" as="geometry" />
        </mxCell>
        <mxCell id="i9Y9PTabGPXXXa_qy1XM-11" value="&lt;div&gt;1&lt;/div&gt;&lt;div&gt;Presensi Online&lt;br&gt;&lt;/div&gt;" style="shape=ellipse;html=1;dashed=0;whiteSpace=wrap;perimeter=ellipsePerimeter;" vertex="1" parent="1">
          <mxGeometry x="293" y="323.75" width="80" height="75" as="geometry" />
        </mxCell>
        <mxCell id="i9Y9PTabGPXXXa_qy1XM-12" value="User" style="html=1;dashed=0;whiteSpace=wrap;" vertex="1" parent="1">
          <mxGeometry x="49" y="340" width="100" height="42.5" as="geometry" />
        </mxCell>
        <mxCell id="i9Y9PTabGPXXXa_qy1XM-13" value="wfh_check_log" style="html=1;dashed=0;whiteSpace=wrap;shape=partialRectangle;right=0;left=0;" vertex="1" parent="1">
          <mxGeometry x="20" y="870" width="130" height="30" as="geometry" />
        </mxCell>
        <mxCell id="i9Y9PTabGPXXXa_qy1XM-14" value="" style="endArrow=classic;html=1;rounded=0;exitX=1;exitY=0.5;exitDx=0;exitDy=0;entryX=0;entryY=0.5;entryDx=0;entryDy=0;" edge="1" parent="1" source="i9Y9PTabGPXXXa_qy1XM-12" target="i9Y9PTabGPXXXa_qy1XM-11">
          <mxGeometry width="50" height="50" relative="1" as="geometry">
            <mxPoint x="399" y="370" as="sourcePoint" />
            <mxPoint x="449" y="320" as="targetPoint" />
          </mxGeometry>
        </mxCell>
        <mxCell id="i9Y9PTabGPXXXa_qy1XM-35" value="&lt;div&gt;username+password&lt;/div&gt;&lt;div&gt;captcha+token+&lt;/div&gt;&lt;div&gt;ltitude+longitude&lt;br&gt;&lt;/div&gt;" style="edgeLabel;html=1;align=center;verticalAlign=middle;resizable=0;points=[];" vertex="1" connectable="0" parent="i9Y9PTabGPXXXa_qy1XM-14">
          <mxGeometry x="-0.3529" y="-1" relative="1" as="geometry">
            <mxPoint x="34" as="offset" />
          </mxGeometry>
        </mxCell>
        <mxCell id="i9Y9PTabGPXXXa_qy1XM-15" value="temp_all_user" style="html=1;dashed=0;whiteSpace=wrap;shape=partialRectangle;right=0;left=0;" vertex="1" parent="1">
          <mxGeometry x="670" y="330" width="130" height="30" as="geometry" />
        </mxCell>
        <mxCell id="i9Y9PTabGPXXXa_qy1XM-16" value="wfh_ms_question" style="html=1;dashed=0;whiteSpace=wrap;shape=partialRectangle;right=0;left=0;" vertex="1" parent="1">
          <mxGeometry x="679" y="570" width="130" height="30" as="geometry" />
        </mxCell>
        <mxCell id="i9Y9PTabGPXXXa_qy1XM-17" value="wfh_log_user_capcha" style="html=1;dashed=0;whiteSpace=wrap;shape=partialRectangle;right=0;left=0;" vertex="1" parent="1">
          <mxGeometry x="679" y="765" width="130" height="30" as="geometry" />
        </mxCell>
        <mxCell id="i9Y9PTabGPXXXa_qy1XM-18" value="" style="endArrow=classic;html=1;rounded=0;exitX=0;exitY=0.5;exitDx=0;exitDy=0;entryX=0.268;entryY=0.016;entryDx=0;entryDy=0;entryPerimeter=0;" edge="1" parent="1" source="i9Y9PTabGPXXXa_qy1XM-15" target="i9Y9PTabGPXXXa_qy1XM-48">
          <mxGeometry width="50" height="50" relative="1" as="geometry">
            <mxPoint x="469" y="370" as="sourcePoint" />
            <mxPoint x="519" y="320" as="targetPoint" />
            <Array as="points">
              <mxPoint x="649" y="295" />
              <mxPoint x="619" y="295" />
              <mxPoint x="569" y="295" />
            </Array>
          </mxGeometry>
        </mxCell>
        <mxCell id="i9Y9PTabGPXXXa_qy1XM-36" value="data karyawan" style="edgeLabel;html=1;align=center;verticalAlign=middle;resizable=0;points=[];" vertex="1" connectable="0" parent="i9Y9PTabGPXXXa_qy1XM-18">
          <mxGeometry x="-0.1832" y="3" relative="1" as="geometry">
            <mxPoint as="offset" />
          </mxGeometry>
        </mxCell>
        <mxCell id="i9Y9PTabGPXXXa_qy1XM-22" value="wfh_log_status_karyawan" style="html=1;dashed=0;whiteSpace=wrap;shape=partialRectangle;right=0;left=0;" vertex="1" parent="1">
          <mxGeometry x="679" y="455" width="130" height="30" as="geometry" />
        </mxCell>
        <mxCell id="i9Y9PTabGPXXXa_qy1XM-26" value="" style="endArrow=classic;startArrow=classic;html=1;rounded=0;exitX=0;exitY=0.375;exitDx=0;exitDy=0;exitPerimeter=0;entryX=1;entryY=0.5;entryDx=0;entryDy=0;" edge="1" parent="1" target="i9Y9PTabGPXXXa_qy1XM-53">
          <mxGeometry width="50" height="50" relative="1" as="geometry">
            <mxPoint x="679" y="471.25" as="sourcePoint" />
            <mxPoint x="529" y="471.25" as="targetPoint" />
            <Array as="points">
              <mxPoint x="649" y="471" />
              <mxPoint x="649" y="510" />
            </Array>
          </mxGeometry>
        </mxCell>
        <mxCell id="i9Y9PTabGPXXXa_qy1XM-38" value="kode_user+nik+status" style="edgeLabel;html=1;align=center;verticalAlign=middle;resizable=0;points=[];" vertex="1" connectable="0" parent="i9Y9PTabGPXXXa_qy1XM-26">
          <mxGeometry x="0.1128" y="-1" relative="1" as="geometry">
            <mxPoint as="offset" />
          </mxGeometry>
        </mxCell>
        <mxCell id="i9Y9PTabGPXXXa_qy1XM-29" value="" style="endArrow=classic;html=1;rounded=0;exitX=0;exitY=0.5;exitDx=0;exitDy=0;entryX=1.013;entryY=0.42;entryDx=0;entryDy=0;entryPerimeter=0;" edge="1" parent="1" source="i9Y9PTabGPXXXa_qy1XM-16" target="i9Y9PTabGPXXXa_qy1XM-56">
          <mxGeometry width="50" height="50" relative="1" as="geometry">
            <mxPoint x="299" y="830" as="sourcePoint" />
            <mxPoint x="499" y="770" as="targetPoint" />
            <Array as="points">
              <mxPoint x="599" y="590" />
              <mxPoint x="559" y="622" />
            </Array>
          </mxGeometry>
        </mxCell>
        <mxCell id="i9Y9PTabGPXXXa_qy1XM-39" value="id_question+question+status" style="edgeLabel;html=1;align=center;verticalAlign=middle;resizable=0;points=[];" vertex="1" connectable="0" parent="i9Y9PTabGPXXXa_qy1XM-29">
          <mxGeometry x="-0.1619" y="1" relative="1" as="geometry">
            <mxPoint as="offset" />
          </mxGeometry>
        </mxCell>
        <mxCell id="i9Y9PTabGPXXXa_qy1XM-30" value="wfh_ms_choice" style="html=1;dashed=0;whiteSpace=wrap;shape=partialRectangle;right=0;left=0;" vertex="1" parent="1">
          <mxGeometry x="679" y="640" width="130" height="30" as="geometry" />
        </mxCell>
        <mxCell id="i9Y9PTabGPXXXa_qy1XM-34" value="wfh_history_bmi" style="html=1;dashed=0;whiteSpace=wrap;shape=partialRectangle;right=0;left=0;" vertex="1" parent="1">
          <mxGeometry x="679" y="862.5" width="130" height="30" as="geometry" />
        </mxCell>
        <mxCell id="i9Y9PTabGPXXXa_qy1XM-40" value="wfh_log_aktifitas" style="html=1;dashed=0;whiteSpace=wrap;shape=partialRectangle;right=0;left=0;" vertex="1" parent="1">
          <mxGeometry x="19" y="980" width="130" height="30" as="geometry" />
        </mxCell>
        <mxCell id="i9Y9PTabGPXXXa_qy1XM-41" value="" style="endArrow=classic;html=1;rounded=0;exitX=0;exitY=0.5;exitDx=0;exitDy=0;entryX=1.004;entryY=0.628;entryDx=0;entryDy=0;entryPerimeter=0;" edge="1" parent="1" source="i9Y9PTabGPXXXa_qy1XM-30" target="i9Y9PTabGPXXXa_qy1XM-56">
          <mxGeometry width="50" height="50" relative="1" as="geometry">
            <mxPoint x="689" y="805" as="sourcePoint" />
            <mxPoint x="449" y="710" as="targetPoint" />
            <Array as="points">
              <mxPoint x="649" y="710" />
              <mxPoint x="569" y="710" />
              <mxPoint x="499" y="710" />
            </Array>
          </mxGeometry>
        </mxCell>
        <mxCell id="i9Y9PTabGPXXXa_qy1XM-42" value="&lt;div&gt;id_question+choose_text+&lt;/div&gt;&lt;div&gt;jawaban_benar&lt;br&gt;&lt;/div&gt;" style="edgeLabel;html=1;align=center;verticalAlign=middle;resizable=0;points=[];" vertex="1" connectable="0" parent="i9Y9PTabGPXXXa_qy1XM-41">
          <mxGeometry x="-0.1619" y="1" relative="1" as="geometry">
            <mxPoint as="offset" />
          </mxGeometry>
        </mxCell>
        <mxCell id="i9Y9PTabGPXXXa_qy1XM-48" value="&lt;div&gt;1.1&lt;/div&gt;Login" style="shape=ellipse;html=1;dashed=0;whiteSpace=wrap;perimeter=ellipsePerimeter;" vertex="1" parent="1">
          <mxGeometry x="549" y="323.75" width="80" height="75" as="geometry" />
        </mxCell>
        <mxCell id="i9Y9PTabGPXXXa_qy1XM-49" value="" style="endArrow=classic;html=1;rounded=0;entryX=0;entryY=0.5;entryDx=0;entryDy=0;exitX=1;exitY=0.5;exitDx=0;exitDy=0;" edge="1" parent="1" source="i9Y9PTabGPXXXa_qy1XM-11" target="i9Y9PTabGPXXXa_qy1XM-48">
          <mxGeometry width="50" height="50" relative="1" as="geometry">
            <mxPoint x="319" y="370" as="sourcePoint" />
            <mxPoint x="369" y="320" as="targetPoint" />
            <Array as="points" />
          </mxGeometry>
        </mxCell>
        <mxCell id="i9Y9PTabGPXXXa_qy1XM-58" value="&lt;div&gt;kode_user+&lt;/div&gt;&lt;div&gt;password+token&lt;/div&gt;" style="edgeLabel;html=1;align=center;verticalAlign=middle;resizable=0;points=[];" vertex="1" connectable="0" parent="i9Y9PTabGPXXXa_qy1XM-49">
          <mxGeometry x="-0.5662" y="1" relative="1" as="geometry">
            <mxPoint x="39" as="offset" />
          </mxGeometry>
        </mxCell>
        <mxCell id="i9Y9PTabGPXXXa_qy1XM-50" value="&lt;div&gt;1.4&lt;/div&gt;Validasi Koordinat Kantor" style="shape=ellipse;html=1;dashed=0;whiteSpace=wrap;perimeter=ellipsePerimeter;" vertex="1" parent="1">
          <mxGeometry x="189" y="565" width="80" height="75" as="geometry" />
        </mxCell>
        <mxCell id="i9Y9PTabGPXXXa_qy1XM-53" value="&lt;div&gt;1.2&lt;/div&gt;Cek&amp;nbsp; Status" style="shape=ellipse;html=1;dashed=0;whiteSpace=wrap;perimeter=ellipsePerimeter;" vertex="1" parent="1">
          <mxGeometry x="439" y="470" width="80" height="75" as="geometry" />
        </mxCell>
        <mxCell id="i9Y9PTabGPXXXa_qy1XM-56" value="&lt;div&gt;1.3&lt;/div&gt;PopUp Pertanyaan" style="shape=ellipse;html=1;dashed=0;whiteSpace=wrap;perimeter=ellipsePerimeter;" vertex="1" parent="1">
          <mxGeometry x="364" y="590" width="80" height="75" as="geometry" />
        </mxCell>
        <mxCell id="i9Y9PTabGPXXXa_qy1XM-61" value="" style="endArrow=classic;html=1;rounded=0;exitX=1;exitY=1;exitDx=0;exitDy=0;entryX=0;entryY=0.5;entryDx=0;entryDy=0;" edge="1" parent="1" source="i9Y9PTabGPXXXa_qy1XM-11" target="i9Y9PTabGPXXXa_qy1XM-53">
          <mxGeometry width="50" height="50" relative="1" as="geometry">
            <mxPoint x="449" y="570" as="sourcePoint" />
            <mxPoint x="499" y="520" as="targetPoint" />
            <Array as="points">
              <mxPoint x="361" y="508" />
            </Array>
          </mxGeometry>
        </mxCell>
        <mxCell id="i9Y9PTabGPXXXa_qy1XM-62" value="kode_user+token" style="edgeLabel;html=1;align=center;verticalAlign=middle;resizable=0;points=[];" vertex="1" connectable="0" parent="i9Y9PTabGPXXXa_qy1XM-61">
          <mxGeometry x="-0.2798" y="3" relative="1" as="geometry">
            <mxPoint x="24" as="offset" />
          </mxGeometry>
        </mxCell>
        <mxCell id="i9Y9PTabGPXXXa_qy1XM-63" value="" style="endArrow=classic;html=1;rounded=0;entryX=0;entryY=0.5;entryDx=0;entryDy=0;" edge="1" parent="1" target="i9Y9PTabGPXXXa_qy1XM-56">
          <mxGeometry width="50" height="50" relative="1" as="geometry">
            <mxPoint x="339" y="400" as="sourcePoint" />
            <mxPoint x="499" y="520" as="targetPoint" />
            <Array as="points">
              <mxPoint x="339" y="628" />
            </Array>
          </mxGeometry>
        </mxCell>
        <mxCell id="i9Y9PTabGPXXXa_qy1XM-66" value="kode_user+token+jawaban" style="edgeLabel;html=1;align=center;verticalAlign=middle;resizable=0;points=[];" vertex="1" connectable="0" parent="i9Y9PTabGPXXXa_qy1XM-63">
          <mxGeometry x="0.1459" y="2" relative="1" as="geometry">
            <mxPoint x="40" as="offset" />
          </mxGeometry>
        </mxCell>
        <mxCell id="i9Y9PTabGPXXXa_qy1XM-65" value="&lt;div&gt;1.3.1&lt;/div&gt;Simpan Log Captcha" style="shape=ellipse;html=1;dashed=0;whiteSpace=wrap;perimeter=ellipsePerimeter;" vertex="1" parent="1">
          <mxGeometry x="399" y="720" width="80" height="75" as="geometry" />
        </mxCell>
        <mxCell id="i9Y9PTabGPXXXa_qy1XM-67" value="" style="endArrow=classic;html=1;rounded=0;exitX=0.5;exitY=1;exitDx=0;exitDy=0;" edge="1" parent="1" source="i9Y9PTabGPXXXa_qy1XM-56" target="i9Y9PTabGPXXXa_qy1XM-65">
          <mxGeometry width="50" height="50" relative="1" as="geometry">
            <mxPoint x="449" y="620" as="sourcePoint" />
            <mxPoint x="499" y="570" as="targetPoint" />
          </mxGeometry>
        </mxCell>
        <mxCell id="i9Y9PTabGPXXXa_qy1XM-68" value="kode_user+status_jawaban" style="edgeLabel;html=1;align=center;verticalAlign=middle;resizable=0;points=[];" vertex="1" connectable="0" parent="i9Y9PTabGPXXXa_qy1XM-67">
          <mxGeometry x="0.0419" y="-1" relative="1" as="geometry">
            <mxPoint as="offset" />
          </mxGeometry>
        </mxCell>
        <mxCell id="i9Y9PTabGPXXXa_qy1XM-69" value="" style="endArrow=classic;html=1;rounded=0;entryX=0;entryY=0.5;entryDx=0;entryDy=0;exitX=0.939;exitY=0.82;exitDx=0;exitDy=0;exitPerimeter=0;" edge="1" parent="1" source="i9Y9PTabGPXXXa_qy1XM-65" target="i9Y9PTabGPXXXa_qy1XM-17">
          <mxGeometry width="50" height="50" relative="1" as="geometry">
            <mxPoint x="449" y="760" as="sourcePoint" />
            <mxPoint x="499" y="730" as="targetPoint" />
          </mxGeometry>
        </mxCell>
        <mxCell id="i9Y9PTabGPXXXa_qy1XM-70" value="&lt;div&gt;kode_user+id_question+choice_id&lt;/div&gt;&lt;div&gt;status_jawaban&lt;br&gt;&lt;/div&gt;" style="edgeLabel;html=1;align=center;verticalAlign=middle;resizable=0;points=[];" vertex="1" connectable="0" parent="i9Y9PTabGPXXXa_qy1XM-69">
          <mxGeometry x="-0.0648" y="-3" relative="1" as="geometry">
            <mxPoint as="offset" />
          </mxGeometry>
        </mxCell>
        <mxCell id="i9Y9PTabGPXXXa_qy1XM-73" value="&lt;div&gt;1.3.2&lt;/div&gt;Bmi Popup" style="shape=ellipse;html=1;dashed=0;whiteSpace=wrap;perimeter=ellipsePerimeter;" vertex="1" parent="1">
          <mxGeometry x="429" y="840" width="80" height="75" as="geometry" />
        </mxCell>
        <mxCell id="i9Y9PTabGPXXXa_qy1XM-74" value="" style="endArrow=classic;html=1;rounded=0;exitX=0.004;exitY=0.733;exitDx=0;exitDy=0;exitPerimeter=0;entryX=0;entryY=0.5;entryDx=0;entryDy=0;" edge="1" parent="1" source="i9Y9PTabGPXXXa_qy1XM-56" target="i9Y9PTabGPXXXa_qy1XM-73">
          <mxGeometry width="50" height="50" relative="1" as="geometry">
            <mxPoint x="449" y="820" as="sourcePoint" />
            <mxPoint x="499" y="770" as="targetPoint" />
            <Array as="points">
              <mxPoint x="339" y="645" />
              <mxPoint x="339" y="850" />
            </Array>
          </mxGeometry>
        </mxCell>
        <mxCell id="i9Y9PTabGPXXXa_qy1XM-77" value="kode_user" style="edgeLabel;html=1;align=center;verticalAlign=middle;resizable=0;points=[];" vertex="1" connectable="0" parent="i9Y9PTabGPXXXa_qy1XM-74">
          <mxGeometry x="-0.158" y="4" relative="1" as="geometry">
            <mxPoint as="offset" />
          </mxGeometry>
        </mxCell>
        <mxCell id="i9Y9PTabGPXXXa_qy1XM-75" value="" style="endArrow=classic;startArrow=classic;html=1;rounded=0;exitX=1;exitY=0.5;exitDx=0;exitDy=0;entryX=0;entryY=0.5;entryDx=0;entryDy=0;" edge="1" parent="1" source="i9Y9PTabGPXXXa_qy1XM-73" target="i9Y9PTabGPXXXa_qy1XM-34">
          <mxGeometry width="50" height="50" relative="1" as="geometry">
            <mxPoint x="449" y="860" as="sourcePoint" />
            <mxPoint x="499" y="810" as="targetPoint" />
          </mxGeometry>
        </mxCell>
        <mxCell id="i9Y9PTabGPXXXa_qy1XM-76" value="&lt;div&gt;kode_user+&lt;/div&gt;&lt;div&gt;tingi_badan+&lt;/div&gt;&lt;div&gt;berat_badan&lt;br&gt;&lt;/div&gt;" style="edgeLabel;html=1;align=center;verticalAlign=middle;resizable=0;points=[];" vertex="1" connectable="0" parent="i9Y9PTabGPXXXa_qy1XM-75">
          <mxGeometry x="-0.0726" y="-2" relative="1" as="geometry">
            <mxPoint as="offset" />
          </mxGeometry>
        </mxCell>
        <mxCell id="i9Y9PTabGPXXXa_qy1XM-78" value="wfh_ms_konfigurasi" style="html=1;dashed=0;whiteSpace=wrap;shape=partialRectangle;right=0;left=0;" vertex="1" parent="1">
          <mxGeometry x="19" y="440" width="120" height="30" as="geometry" />
        </mxCell>
        <mxCell id="i9Y9PTabGPXXXa_qy1XM-79" value="wfh_ms_kantor_ptp" style="html=1;dashed=0;whiteSpace=wrap;shape=partialRectangle;right=0;left=0;" vertex="1" parent="1">
          <mxGeometry x="19" y="680" width="120" height="30" as="geometry" />
        </mxCell>
        <mxCell id="i9Y9PTabGPXXXa_qy1XM-80" value="wfh_ms_user_ptp" style="html=1;dashed=0;whiteSpace=wrap;shape=partialRectangle;right=0;left=0;" vertex="1" parent="1">
          <mxGeometry x="19" y="540" width="120" height="30" as="geometry" />
        </mxCell>
        <mxCell id="i9Y9PTabGPXXXa_qy1XM-81" value="wfh_ms_kantor" style="html=1;dashed=0;whiteSpace=wrap;shape=partialRectangle;right=0;left=0;" vertex="1" parent="1">
          <mxGeometry x="19" y="750" width="120" height="30" as="geometry" />
        </mxCell>
        <mxCell id="i9Y9PTabGPXXXa_qy1XM-82" value="" style="endArrow=classic;html=1;rounded=0;entryX=1;entryY=0;entryDx=0;entryDy=0;exitX=0;exitY=1;exitDx=0;exitDy=0;" edge="1" parent="1" source="i9Y9PTabGPXXXa_qy1XM-11" target="i9Y9PTabGPXXXa_qy1XM-50">
          <mxGeometry width="50" height="50" relative="1" as="geometry">
            <mxPoint x="319" y="400" as="sourcePoint" />
            <mxPoint x="509" y="610" as="targetPoint" />
            <Array as="points">
              <mxPoint x="257" y="480" />
            </Array>
          </mxGeometry>
        </mxCell>
        <mxCell id="i9Y9PTabGPXXXa_qy1XM-83" value="&lt;div&gt;kode_user+&lt;/div&gt;&lt;div&gt;token+&lt;/div&gt;&lt;div&gt;latitude+&lt;/div&gt;&lt;div&gt;longitude&lt;br&gt;&lt;/div&gt;" style="edgeLabel;html=1;align=center;verticalAlign=middle;resizable=0;points=[];" vertex="1" connectable="0" parent="i9Y9PTabGPXXXa_qy1XM-82">
          <mxGeometry x="-0.1029" y="3" relative="1" as="geometry">
            <mxPoint as="offset" />
          </mxGeometry>
        </mxCell>
        <mxCell id="i9Y9PTabGPXXXa_qy1XM-84" value="" style="endArrow=classic;html=1;rounded=0;exitX=1;exitY=0.5;exitDx=0;exitDy=0;entryX=0.431;entryY=-0.007;entryDx=0;entryDy=0;entryPerimeter=0;" edge="1" parent="1" source="i9Y9PTabGPXXXa_qy1XM-78" target="i9Y9PTabGPXXXa_qy1XM-50">
          <mxGeometry width="50" height="50" relative="1" as="geometry">
            <mxPoint x="459" y="660" as="sourcePoint" />
            <mxPoint x="509" y="610" as="targetPoint" />
            <Array as="points">
              <mxPoint x="169" y="455" />
            </Array>
          </mxGeometry>
        </mxCell>
        <mxCell id="i9Y9PTabGPXXXa_qy1XM-86" value="" style="endArrow=classic;html=1;rounded=0;exitX=0.439;exitY=0.967;exitDx=0;exitDy=0;exitPerimeter=0;entryX=0;entryY=0.5;entryDx=0;entryDy=0;" edge="1" parent="1" source="i9Y9PTabGPXXXa_qy1XM-80" target="i9Y9PTabGPXXXa_qy1XM-50">
          <mxGeometry width="50" height="50" relative="1" as="geometry">
            <mxPoint x="459" y="660" as="sourcePoint" />
            <mxPoint x="509" y="610" as="targetPoint" />
            <Array as="points">
              <mxPoint x="72" y="600" />
            </Array>
          </mxGeometry>
        </mxCell>
        <mxCell id="i9Y9PTabGPXXXa_qy1XM-87" value="&lt;div style=&quot;font-size: 10px;&quot;&gt;&lt;font style=&quot;font-size: 10px;&quot;&gt;kode_user+kode_kantor+&lt;/font&gt;&lt;/div&gt;&lt;div style=&quot;font-size: 10px;&quot;&gt;&lt;font style=&quot;font-size: 10px;&quot;&gt;status+tanggal_mulai+&lt;/font&gt;&lt;/div&gt;&lt;div style=&quot;font-size: 10px;&quot;&gt;&lt;font style=&quot;font-size: 10px;&quot;&gt;tanggal_selesai&lt;font style=&quot;font-size: 10px;&quot;&gt;&lt;br&gt;&lt;/font&gt;&lt;/font&gt;&lt;/div&gt;" style="edgeLabel;html=1;align=center;verticalAlign=middle;resizable=0;points=[];" vertex="1" connectable="0" parent="i9Y9PTabGPXXXa_qy1XM-86">
          <mxGeometry x="-0.3651" relative="1" as="geometry">
            <mxPoint x="11" as="offset" />
          </mxGeometry>
        </mxCell>
        <mxCell id="i9Y9PTabGPXXXa_qy1XM-89" value="" style="endArrow=classic;html=1;rounded=0;exitX=0.166;exitY=0.027;exitDx=0;exitDy=0;entryX=0.26;entryY=0.999;entryDx=0;entryDy=0;entryPerimeter=0;exitPerimeter=0;" edge="1" parent="1" source="i9Y9PTabGPXXXa_qy1XM-79" target="i9Y9PTabGPXXXa_qy1XM-50">
          <mxGeometry width="50" height="50" relative="1" as="geometry">
            <mxPoint x="459" y="660" as="sourcePoint" />
            <mxPoint x="509" y="610" as="targetPoint" />
            <Array as="points">
              <mxPoint x="39" y="660" />
              <mxPoint x="210" y="660" />
            </Array>
          </mxGeometry>
        </mxCell>
        <mxCell id="i9Y9PTabGPXXXa_qy1XM-90" value="&lt;div&gt;kode_kantor+status+&lt;/div&gt;&lt;div&gt;longitude+latitude&lt;br&gt;&lt;/div&gt;" style="edgeLabel;html=1;align=center;verticalAlign=middle;resizable=0;points=[];" vertex="1" connectable="0" parent="i9Y9PTabGPXXXa_qy1XM-89">
          <mxGeometry x="-0.5727" y="-2" relative="1" as="geometry">
            <mxPoint x="61" as="offset" />
          </mxGeometry>
        </mxCell>
        <mxCell id="i9Y9PTabGPXXXa_qy1XM-91" value="" style="endArrow=classic;html=1;rounded=0;exitX=0.163;exitY=-0.021;exitDx=0;exitDy=0;exitPerimeter=0;" edge="1" parent="1" source="i9Y9PTabGPXXXa_qy1XM-81">
          <mxGeometry width="50" height="50" relative="1" as="geometry">
            <mxPoint x="510" y="720" as="sourcePoint" />
            <mxPoint x="230" y="650" as="targetPoint" />
            <Array as="points">
              <mxPoint x="40" y="730" />
              <mxPoint x="230" y="730" />
            </Array>
          </mxGeometry>
        </mxCell>
        <mxCell id="i9Y9PTabGPXXXa_qy1XM-92" value="&lt;div&gt;kode_kantor+status+&lt;/div&gt;&lt;div&gt;longitude+latitude&lt;br&gt;&lt;/div&gt;" style="edgeLabel;html=1;align=center;verticalAlign=middle;resizable=0;points=[];" vertex="1" connectable="0" parent="i9Y9PTabGPXXXa_qy1XM-91">
          <mxGeometry x="-0.2764" y="3" relative="1" as="geometry">
            <mxPoint as="offset" />
          </mxGeometry>
        </mxCell>
        <mxCell id="i9Y9PTabGPXXXa_qy1XM-93" value="&lt;div&gt;1.4.1&lt;/div&gt;Simpan Log Presensi" style="shape=ellipse;html=1;dashed=0;whiteSpace=wrap;perimeter=ellipsePerimeter;" vertex="1" parent="1">
          <mxGeometry x="189" y="817.5" width="80" height="75" as="geometry" />
        </mxCell>
        <mxCell id="i9Y9PTabGPXXXa_qy1XM-94" value="" style="endArrow=classic;html=1;rounded=0;exitX=0.704;exitY=0.96;exitDx=0;exitDy=0;exitPerimeter=0;entryX=0.727;entryY=-0.019;entryDx=0;entryDy=0;entryPerimeter=0;" edge="1" parent="1" source="i9Y9PTabGPXXXa_qy1XM-50" target="i9Y9PTabGPXXXa_qy1XM-93">
          <mxGeometry width="50" height="50" relative="1" as="geometry">
            <mxPoint x="510" y="720" as="sourcePoint" />
            <mxPoint x="560" y="670" as="targetPoint" />
          </mxGeometry>
        </mxCell>
        <mxCell id="i9Y9PTabGPXXXa_qy1XM-96" value="" style="endArrow=classic;startArrow=classic;html=1;rounded=0;exitX=0.25;exitY=0;exitDx=0;exitDy=0;entryX=0;entryY=0;entryDx=0;entryDy=0;" edge="1" parent="1" source="i9Y9PTabGPXXXa_qy1XM-13" target="i9Y9PTabGPXXXa_qy1XM-93">
          <mxGeometry width="50" height="50" relative="1" as="geometry">
            <mxPoint x="510" y="720" as="sourcePoint" />
            <mxPoint x="560" y="670" as="targetPoint" />
            <Array as="points">
              <mxPoint x="53" y="830" />
            </Array>
          </mxGeometry>
        </mxCell>
        <mxCell id="i9Y9PTabGPXXXa_qy1XM-97" value="&lt;div&gt;kode_user+nik+&lt;/div&gt;&lt;div&gt;tanggal&lt;br&gt;&lt;/div&gt;" style="edgeLabel;html=1;align=center;verticalAlign=middle;resizable=0;points=[];" vertex="1" connectable="0" parent="i9Y9PTabGPXXXa_qy1XM-96">
          <mxGeometry x="-0.2252" y="-1" relative="1" as="geometry">
            <mxPoint x="26" as="offset" />
          </mxGeometry>
        </mxCell>
        <mxCell id="i9Y9PTabGPXXXa_qy1XM-98" value="&lt;div&gt;1.5&lt;/div&gt;Simpan Log Aktivitas" style="shape=ellipse;html=1;dashed=0;whiteSpace=wrap;perimeter=ellipsePerimeter;" vertex="1" parent="1">
          <mxGeometry x="240" y="940" width="80" height="75" as="geometry" />
        </mxCell>
        <mxCell id="i9Y9PTabGPXXXa_qy1XM-99" value="" style="endArrow=classic;html=1;rounded=0;entryX=0.75;entryY=0;entryDx=0;entryDy=0;entryPerimeter=0;exitX=0.337;exitY=1.017;exitDx=0;exitDy=0;exitPerimeter=0;" edge="1" parent="1" source="i9Y9PTabGPXXXa_qy1XM-11" target="i9Y9PTabGPXXXa_qy1XM-98">
          <mxGeometry width="50" height="50" relative="1" as="geometry">
            <mxPoint x="300" y="580" as="sourcePoint" />
            <mxPoint x="160" y="710" as="targetPoint" />
            <Array as="points">
              <mxPoint x="300" y="550" />
            </Array>
          </mxGeometry>
        </mxCell>
        <mxCell id="i9Y9PTabGPXXXa_qy1XM-100" value="" style="endArrow=classic;startArrow=classic;html=1;rounded=0;exitX=0.25;exitY=0;exitDx=0;exitDy=0;entryX=0.056;entryY=0.182;entryDx=0;entryDy=0;entryPerimeter=0;" edge="1" parent="1" source="i9Y9PTabGPXXXa_qy1XM-40" target="i9Y9PTabGPXXXa_qy1XM-98">
          <mxGeometry width="50" height="50" relative="1" as="geometry">
            <mxPoint x="110" y="790" as="sourcePoint" />
            <mxPoint x="160" y="740" as="targetPoint" />
            <Array as="points">
              <mxPoint x="52" y="954" />
            </Array>
          </mxGeometry>
        </mxCell>
        <mxCell id="i9Y9PTabGPXXXa_qy1XM-101" value="kode_user+uraian_pekerjaan+token" style="edgeLabel;html=1;align=center;verticalAlign=middle;resizable=0;points=[];" vertex="1" connectable="0" parent="i9Y9PTabGPXXXa_qy1XM-100">
          <mxGeometry x="-0.0891" relative="1" as="geometry">
            <mxPoint x="12" as="offset" />
          </mxGeometry>
        </mxCell>
        <mxCell id="i9Y9PTabGPXXXa_qy1XM-102" value="DFD Presensi Online Level 1 - 2 (Fitur Presensi)" style="text;html=1;align=center;verticalAlign=middle;resizable=0;points=[];autosize=1;strokeColor=none;fillColor=none;" vertex="1" parent="1">
          <mxGeometry x="260" y="1022" width="270" height="30" as="geometry" />
        </mxCell>
        <mxCell id="i9Y9PTabGPXXXa_qy1XM-103" value="&lt;div&gt;2&lt;/div&gt;&lt;div&gt;Detail&lt;br&gt;&lt;/div&gt;" style="shape=ellipse;html=1;dashed=0;whiteSpace=wrap;aspect=fixed;perimeter=ellipsePerimeter;" vertex="1" parent="1">
          <mxGeometry x="320" y="1110" width="80" height="80" as="geometry" />
        </mxCell>
        <mxCell id="i9Y9PTabGPXXXa_qy1XM-104" value="User" style="html=1;dashed=0;whiteSpace=wrap;" vertex="1" parent="1">
          <mxGeometry x="49" y="1138.75" width="100" height="42.5" as="geometry" />
        </mxCell>
        <mxCell id="i9Y9PTabGPXXXa_qy1XM-105" value="&lt;div&gt;3&lt;/div&gt;&lt;div&gt;Ganti Password&lt;br&gt;&lt;/div&gt;" style="shape=ellipse;html=1;dashed=0;whiteSpace=wrap;aspect=fixed;perimeter=ellipsePerimeter;" vertex="1" parent="1">
          <mxGeometry x="319" y="1220" width="80" height="80" as="geometry" />
        </mxCell>
        <mxCell id="i9Y9PTabGPXXXa_qy1XM-106" value="&lt;div&gt;5&lt;/div&gt;&lt;div&gt;BMI Karyawan&lt;br&gt;&lt;/div&gt;" style="shape=ellipse;html=1;dashed=0;whiteSpace=wrap;aspect=fixed;perimeter=ellipsePerimeter;" vertex="1" parent="1">
          <mxGeometry x="320" y="1420" width="80" height="80" as="geometry" />
        </mxCell>
        <mxCell id="i9Y9PTabGPXXXa_qy1XM-107" value="&lt;div&gt;4&lt;/div&gt;&lt;div&gt;Presensi Karyawan&lt;/div&gt;" style="shape=ellipse;html=1;dashed=0;whiteSpace=wrap;aspect=fixed;perimeter=ellipsePerimeter;" vertex="1" parent="1">
          <mxGeometry x="320" y="1320" width="80" height="80" as="geometry" />
        </mxCell>
        <mxCell id="i9Y9PTabGPXXXa_qy1XM-108" value="&lt;div&gt;7&lt;/div&gt;&lt;div&gt;Log Harian Staff&lt;br&gt;&lt;/div&gt;" style="shape=ellipse;html=1;dashed=0;whiteSpace=wrap;aspect=fixed;perimeter=ellipsePerimeter;" vertex="1" parent="1">
          <mxGeometry x="319" y="1620" width="80" height="80" as="geometry" />
        </mxCell>
        <mxCell id="i9Y9PTabGPXXXa_qy1XM-109" value="&lt;div&gt;6&lt;/div&gt;&lt;div&gt;Log Harian Saya&lt;/div&gt;" style="shape=ellipse;html=1;dashed=0;whiteSpace=wrap;aspect=fixed;perimeter=ellipsePerimeter;" vertex="1" parent="1">
          <mxGeometry x="320" y="1520" width="80" height="80" as="geometry" />
        </mxCell>
        <mxCell id="i9Y9PTabGPXXXa_qy1XM-110" value="8" style="shape=ellipse;html=1;dashed=0;whiteSpace=wrap;aspect=fixed;perimeter=ellipsePerimeter;" vertex="1" parent="1">
          <mxGeometry x="540" y="1780" width="80" height="80" as="geometry" />
        </mxCell>
        <mxCell id="i9Y9PTabGPXXXa_qy1XM-111" value="9" style="shape=ellipse;html=1;dashed=0;whiteSpace=wrap;aspect=fixed;perimeter=ellipsePerimeter;" vertex="1" parent="1">
          <mxGeometry x="310" y="1760" width="80" height="80" as="geometry" />
        </mxCell>
        <mxCell id="i9Y9PTabGPXXXa_qy1XM-112" value="10" style="shape=ellipse;html=1;dashed=0;whiteSpace=wrap;aspect=fixed;perimeter=ellipsePerimeter;" vertex="1" parent="1">
          <mxGeometry x="650" y="1780" width="80" height="80" as="geometry" />
        </mxCell>
        <mxCell id="i9Y9PTabGPXXXa_qy1XM-113" value="11" style="shape=ellipse;html=1;dashed=0;whiteSpace=wrap;aspect=fixed;perimeter=ellipsePerimeter;" vertex="1" parent="1">
          <mxGeometry x="420" y="1770" width="80" height="80" as="geometry" />
        </mxCell>
        <mxCell id="i9Y9PTabGPXXXa_qy1XM-114" value="" style="endArrow=classic;html=1;rounded=0;exitX=1;exitY=0.25;exitDx=0;exitDy=0;entryX=0;entryY=0.5;entryDx=0;entryDy=0;" edge="1" parent="1" source="i9Y9PTabGPXXXa_qy1XM-104" target="i9Y9PTabGPXXXa_qy1XM-103">
          <mxGeometry width="50" height="50" relative="1" as="geometry">
            <mxPoint x="290" y="1320" as="sourcePoint" />
            <mxPoint x="340" y="1270" as="targetPoint" />
          </mxGeometry>
        </mxCell>
        <mxCell id="i9Y9PTabGPXXXa_qy1XM-115" value="&lt;div&gt;username+password&lt;/div&gt;&lt;div&gt;captcha+token&lt;/div&gt;" style="edgeLabel;html=1;align=center;verticalAlign=middle;resizable=0;points=[];" vertex="1" connectable="0" parent="i9Y9PTabGPXXXa_qy1XM-114">
          <mxGeometry x="-0.0744" y="2" relative="1" as="geometry">
            <mxPoint as="offset" />
          </mxGeometry>
        </mxCell>
        <mxCell id="i9Y9PTabGPXXXa_qy1XM-116" value="temp_all_user" style="html=1;dashed=0;whiteSpace=wrap;shape=partialRectangle;right=0;left=0;" vertex="1" parent="1">
          <mxGeometry x="697" y="1121.25" width="130" height="30" as="geometry" />
        </mxCell>
        <mxCell id="i9Y9PTabGPXXXa_qy1XM-117" value="" style="endArrow=classic;html=1;rounded=0;exitX=0;exitY=0.5;exitDx=0;exitDy=0;entryX=0.268;entryY=0.016;entryDx=0;entryDy=0;entryPerimeter=0;" edge="1" parent="1" source="i9Y9PTabGPXXXa_qy1XM-116" target="i9Y9PTabGPXXXa_qy1XM-119">
          <mxGeometry width="50" height="50" relative="1" as="geometry">
            <mxPoint x="496" y="1161.25" as="sourcePoint" />
            <mxPoint x="546" y="1111.25" as="targetPoint" />
            <Array as="points">
              <mxPoint x="676" y="1086.25" />
              <mxPoint x="646" y="1086.25" />
              <mxPoint x="596" y="1086.25" />
            </Array>
          </mxGeometry>
        </mxCell>
        <mxCell id="i9Y9PTabGPXXXa_qy1XM-118" value="data karyawan" style="edgeLabel;html=1;align=center;verticalAlign=middle;resizable=0;points=[];" vertex="1" connectable="0" parent="i9Y9PTabGPXXXa_qy1XM-117">
          <mxGeometry x="-0.1832" y="3" relative="1" as="geometry">
            <mxPoint as="offset" />
          </mxGeometry>
        </mxCell>
        <mxCell id="i9Y9PTabGPXXXa_qy1XM-119" value="&lt;div&gt;1.1&lt;/div&gt;Login" style="shape=ellipse;html=1;dashed=0;whiteSpace=wrap;perimeter=ellipsePerimeter;" vertex="1" parent="1">
          <mxGeometry x="576" y="1115" width="80" height="75" as="geometry" />
        </mxCell>
        <mxCell id="i9Y9PTabGPXXXa_qy1XM-120" value="" style="endArrow=classic;html=1;rounded=0;entryX=0;entryY=0.5;entryDx=0;entryDy=0;exitX=1;exitY=0.5;exitDx=0;exitDy=0;" edge="1" parent="1" target="i9Y9PTabGPXXXa_qy1XM-119">
          <mxGeometry width="50" height="50" relative="1" as="geometry">
            <mxPoint x="400" y="1152.25" as="sourcePoint" />
            <mxPoint x="396" y="1111.25" as="targetPoint" />
            <Array as="points" />
          </mxGeometry>
        </mxCell>
        <mxCell id="i9Y9PTabGPXXXa_qy1XM-121" value="&lt;div&gt;kode_user+&lt;/div&gt;&lt;div&gt;password+token&lt;/div&gt;" style="edgeLabel;html=1;align=center;verticalAlign=middle;resizable=0;points=[];" vertex="1" connectable="0" parent="i9Y9PTabGPXXXa_qy1XM-120">
          <mxGeometry x="-0.5662" y="1" relative="1" as="geometry">
            <mxPoint x="39" as="offset" />
          </mxGeometry>
        </mxCell>
        <mxCell id="i9Y9PTabGPXXXa_qy1XM-123" value="" style="endArrow=classic;html=1;rounded=0;entryX=0;entryY=0.5;entryDx=0;entryDy=0;" edge="1" parent="1" target="i9Y9PTabGPXXXa_qy1XM-105">
          <mxGeometry width="50" height="50" relative="1" as="geometry">
            <mxPoint x="150" y="1170" as="sourcePoint" />
            <mxPoint x="340" y="1090" as="targetPoint" />
            <Array as="points">
              <mxPoint x="240" y="1170" />
              <mxPoint x="240" y="1260" />
            </Array>
          </mxGeometry>
        </mxCell>
        <mxCell id="i9Y9PTabGPXXXa_qy1XM-124" value="&lt;div&gt;username+password_lama+&lt;/div&gt;&lt;div&gt;password_baru+token+captcha&lt;br&gt;&lt;/div&gt;" style="edgeLabel;html=1;align=center;verticalAlign=middle;resizable=0;points=[];" vertex="1" connectable="0" parent="i9Y9PTabGPXXXa_qy1XM-123">
          <mxGeometry x="0.0064" y="1" relative="1" as="geometry">
            <mxPoint as="offset" />
          </mxGeometry>
        </mxCell>
        <mxCell id="i9Y9PTabGPXXXa_qy1XM-125" value="" style="endArrow=classic;html=1;rounded=0;exitX=1;exitY=0.5;exitDx=0;exitDy=0;entryX=0.5;entryY=1;entryDx=0;entryDy=0;" edge="1" parent="1" source="i9Y9PTabGPXXXa_qy1XM-105" target="i9Y9PTabGPXXXa_qy1XM-116">
          <mxGeometry width="50" height="50" relative="1" as="geometry">
            <mxPoint x="290" y="1160" as="sourcePoint" />
            <mxPoint x="340" y="1110" as="targetPoint" />
            <Array as="points">
              <mxPoint x="762" y="1260" />
            </Array>
          </mxGeometry>
        </mxCell>
        <mxCell id="i9Y9PTabGPXXXa_qy1XM-126" value="kode_user+password_baru" style="edgeLabel;html=1;align=center;verticalAlign=middle;resizable=0;points=[];" vertex="1" connectable="0" parent="i9Y9PTabGPXXXa_qy1XM-125">
          <mxGeometry x="-0.2022" y="-4" relative="1" as="geometry">
            <mxPoint as="offset" />
          </mxGeometry>
        </mxCell>
        <mxCell id="i9Y9PTabGPXXXa_qy1XM-127" value="" style="endArrow=classic;html=1;rounded=0;exitX=0.925;exitY=0.99;exitDx=0;exitDy=0;exitPerimeter=0;entryX=0;entryY=0.5;entryDx=0;entryDy=0;" edge="1" parent="1" source="i9Y9PTabGPXXXa_qy1XM-104" target="i9Y9PTabGPXXXa_qy1XM-107">
          <mxGeometry width="50" height="50" relative="1" as="geometry">
            <mxPoint x="290" y="1300" as="sourcePoint" />
            <mxPoint x="340" y="1250" as="targetPoint" />
            <Array as="points">
              <mxPoint x="140" y="1360" />
            </Array>
          </mxGeometry>
        </mxCell>
        <mxCell id="i9Y9PTabGPXXXa_qy1XM-128" value="kode_user+token" style="edgeLabel;html=1;align=center;verticalAlign=middle;resizable=0;points=[];" vertex="1" connectable="0" parent="i9Y9PTabGPXXXa_qy1XM-127">
          <mxGeometry x="0.3241" y="-1" relative="1" as="geometry">
            <mxPoint x="28" as="offset" />
          </mxGeometry>
        </mxCell>
        <mxCell id="i9Y9PTabGPXXXa_qy1XM-129" value="wfh_check_log" style="html=1;dashed=0;whiteSpace=wrap;shape=partialRectangle;right=0;left=0;" vertex="1" parent="1">
          <mxGeometry x="697" y="1345" width="130" height="30" as="geometry" />
        </mxCell>
        <mxCell id="i9Y9PTabGPXXXa_qy1XM-132" value="wfh_history_bmi" style="html=1;dashed=0;whiteSpace=wrap;shape=partialRectangle;right=0;left=0;" vertex="1" parent="1">
          <mxGeometry x="629" y="1445" width="130" height="30" as="geometry" />
        </mxCell>
        <mxCell id="i9Y9PTabGPXXXa_qy1XM-133" value="" style="endArrow=classic;html=1;rounded=0;exitX=0.75;exitY=1;exitDx=0;exitDy=0;entryX=0;entryY=0.5;entryDx=0;entryDy=0;" edge="1" parent="1" source="i9Y9PTabGPXXXa_qy1XM-104" target="i9Y9PTabGPXXXa_qy1XM-106">
          <mxGeometry width="50" height="50" relative="1" as="geometry">
            <mxPoint x="290" y="1370" as="sourcePoint" />
            <mxPoint x="340" y="1320" as="targetPoint" />
            <Array as="points">
              <mxPoint x="124" y="1460" />
            </Array>
          </mxGeometry>
        </mxCell>
        <mxCell id="i9Y9PTabGPXXXa_qy1XM-134" value="kode_user+token" style="edgeLabel;html=1;align=center;verticalAlign=middle;resizable=0;points=[];" vertex="1" connectable="0" parent="i9Y9PTabGPXXXa_qy1XM-133">
          <mxGeometry x="0.4044" y="-2" relative="1" as="geometry">
            <mxPoint x="34" as="offset" />
          </mxGeometry>
        </mxCell>
        <mxCell id="i9Y9PTabGPXXXa_qy1XM-138" value="" style="endArrow=classic;html=1;rounded=0;exitX=0.61;exitY=1.012;exitDx=0;exitDy=0;entryX=0.03;entryY=0.582;entryDx=0;entryDy=0;entryPerimeter=0;exitPerimeter=0;" edge="1" parent="1" source="i9Y9PTabGPXXXa_qy1XM-104" target="i9Y9PTabGPXXXa_qy1XM-109">
          <mxGeometry width="50" height="50" relative="1" as="geometry">
            <mxPoint x="103" y="1182" as="sourcePoint" />
            <mxPoint x="299" y="1461" as="targetPoint" />
            <Array as="points">
              <mxPoint x="110" y="1567" />
            </Array>
          </mxGeometry>
        </mxCell>
        <mxCell id="i9Y9PTabGPXXXa_qy1XM-139" value="kode_user+token" style="edgeLabel;html=1;align=center;verticalAlign=middle;resizable=0;points=[];" vertex="1" connectable="0" parent="i9Y9PTabGPXXXa_qy1XM-138">
          <mxGeometry x="0.4044" y="-2" relative="1" as="geometry">
            <mxPoint x="70" y="-3" as="offset" />
          </mxGeometry>
        </mxCell>
        <mxCell id="i9Y9PTabGPXXXa_qy1XM-140" value="" style="endArrow=classic;html=1;rounded=0;exitX=0.5;exitY=1;exitDx=0;exitDy=0;entryX=0;entryY=0.5;entryDx=0;entryDy=0;" edge="1" parent="1" source="i9Y9PTabGPXXXa_qy1XM-104" target="i9Y9PTabGPXXXa_qy1XM-108">
          <mxGeometry width="50" height="50" relative="1" as="geometry">
            <mxPoint x="92" y="1192" as="sourcePoint" />
            <mxPoint x="311" y="1577" as="targetPoint" />
            <Array as="points">
              <mxPoint x="100" y="1660" />
            </Array>
          </mxGeometry>
        </mxCell>
        <mxCell id="i9Y9PTabGPXXXa_qy1XM-141" value="&lt;div&gt;kode_user_atasan+&lt;/div&gt;&lt;div&gt;kode_user+token&lt;/div&gt;" style="edgeLabel;html=1;align=center;verticalAlign=middle;resizable=0;points=[];" vertex="1" connectable="0" parent="i9Y9PTabGPXXXa_qy1XM-140">
          <mxGeometry x="0.4044" y="-2" relative="1" as="geometry">
            <mxPoint x="70" y="-3" as="offset" />
          </mxGeometry>
        </mxCell>
        <mxCell id="i9Y9PTabGPXXXa_qy1XM-144" value="wfh_log_aktifitas" style="html=1;dashed=0;whiteSpace=wrap;shape=partialRectangle;right=0;left=0;" vertex="1" parent="1">
          <mxGeometry x="563" y="1545" width="130" height="30" as="geometry" />
        </mxCell>
        <mxCell id="i9Y9PTabGPXXXa_qy1XM-147" value="" style="endArrow=classic;html=1;rounded=0;entryX=0;entryY=0.5;entryDx=0;entryDy=0;exitX=1;exitY=0.5;exitDx=0;exitDy=0;" edge="1" parent="1" source="i9Y9PTabGPXXXa_qy1XM-107" target="i9Y9PTabGPXXXa_qy1XM-129">
          <mxGeometry width="50" height="50" relative="1" as="geometry">
            <mxPoint x="260" y="1410" as="sourcePoint" />
            <mxPoint x="310" y="1360" as="targetPoint" />
          </mxGeometry>
        </mxCell>
        <mxCell id="i9Y9PTabGPXXXa_qy1XM-148" value="kode_user+tanggal" style="edgeLabel;html=1;align=center;verticalAlign=middle;resizable=0;points=[];" vertex="1" connectable="0" parent="i9Y9PTabGPXXXa_qy1XM-147">
          <mxGeometry x="-0.0537" y="1" relative="1" as="geometry">
            <mxPoint as="offset" />
          </mxGeometry>
        </mxCell>
        <mxCell id="i9Y9PTabGPXXXa_qy1XM-149" value="" style="endArrow=classic;html=1;rounded=0;exitX=1;exitY=0.5;exitDx=0;exitDy=0;entryX=0.892;entryY=1.035;entryDx=0;entryDy=0;entryPerimeter=0;" edge="1" parent="1" source="i9Y9PTabGPXXXa_qy1XM-144" target="i9Y9PTabGPXXXa_qy1XM-129">
          <mxGeometry width="50" height="50" relative="1" as="geometry">
            <mxPoint x="260" y="1410" as="sourcePoint" />
            <mxPoint x="310" y="1360" as="targetPoint" />
            <Array as="points">
              <mxPoint x="813" y="1560" />
            </Array>
          </mxGeometry>
        </mxCell>
        <mxCell id="i9Y9PTabGPXXXa_qy1XM-150" value="kode_user" style="edgeLabel;html=1;align=center;verticalAlign=middle;resizable=0;points=[];" vertex="1" connectable="0" parent="i9Y9PTabGPXXXa_qy1XM-149">
          <mxGeometry x="-0.2862" y="1" relative="1" as="geometry">
            <mxPoint as="offset" />
          </mxGeometry>
        </mxCell>
        <mxCell id="i9Y9PTabGPXXXa_qy1XM-151" value="" style="endArrow=classic;html=1;rounded=0;exitX=1;exitY=0.5;exitDx=0;exitDy=0;entryX=0;entryY=0.5;entryDx=0;entryDy=0;" edge="1" parent="1" source="i9Y9PTabGPXXXa_qy1XM-106" target="i9Y9PTabGPXXXa_qy1XM-132">
          <mxGeometry width="50" height="50" relative="1" as="geometry">
            <mxPoint x="260" y="1410" as="sourcePoint" />
            <mxPoint x="310" y="1360" as="targetPoint" />
          </mxGeometry>
        </mxCell>
        <mxCell id="i9Y9PTabGPXXXa_qy1XM-152" value="kode_user+range_tanggal" style="edgeLabel;html=1;align=center;verticalAlign=middle;resizable=0;points=[];" vertex="1" connectable="0" parent="i9Y9PTabGPXXXa_qy1XM-151">
          <mxGeometry x="-0.1137" y="-2" relative="1" as="geometry">
            <mxPoint as="offset" />
          </mxGeometry>
        </mxCell>
        <mxCell id="i9Y9PTabGPXXXa_qy1XM-153" value="" style="endArrow=classic;html=1;rounded=0;entryX=0;entryY=0.5;entryDx=0;entryDy=0;exitX=1;exitY=0.5;exitDx=0;exitDy=0;" edge="1" parent="1" source="i9Y9PTabGPXXXa_qy1XM-109" target="i9Y9PTabGPXXXa_qy1XM-144">
          <mxGeometry width="50" height="50" relative="1" as="geometry">
            <mxPoint x="410" y="1560" as="sourcePoint" />
            <mxPoint x="310" y="1360" as="targetPoint" />
          </mxGeometry>
        </mxCell>
        <mxCell id="i9Y9PTabGPXXXa_qy1XM-155" value="&lt;div&gt;kode_user+&lt;/div&gt;&lt;div&gt;tanggal&lt;/div&gt;" style="edgeLabel;html=1;align=center;verticalAlign=middle;resizable=0;points=[];" vertex="1" connectable="0" parent="i9Y9PTabGPXXXa_qy1XM-153">
          <mxGeometry x="-0.2807" y="-4" relative="1" as="geometry">
            <mxPoint x="13" as="offset" />
          </mxGeometry>
        </mxCell>
        <mxCell id="i9Y9PTabGPXXXa_qy1XM-156" value="" style="endArrow=classic;html=1;rounded=0;exitX=0.983;exitY=0.415;exitDx=0;exitDy=0;exitPerimeter=0;entryX=0.45;entryY=1.067;entryDx=0;entryDy=0;entryPerimeter=0;" edge="1" parent="1" source="i9Y9PTabGPXXXa_qy1XM-108" target="i9Y9PTabGPXXXa_qy1XM-144">
          <mxGeometry width="50" height="50" relative="1" as="geometry">
            <mxPoint x="260" y="1410" as="sourcePoint" />
            <mxPoint x="310" y="1360" as="targetPoint" />
            <Array as="points">
              <mxPoint x="622" y="1653" />
            </Array>
          </mxGeometry>
        </mxCell>
        <mxCell id="i9Y9PTabGPXXXa_qy1XM-157" value="kode_user+tanggal" style="edgeLabel;html=1;align=center;verticalAlign=middle;resizable=0;points=[];" vertex="1" connectable="0" parent="i9Y9PTabGPXXXa_qy1XM-156">
          <mxGeometry x="-0.3339" relative="1" as="geometry">
            <mxPoint as="offset" />
          </mxGeometry>
        </mxCell>
      </root>
    </mxGraphModel>
  </diagram>
</mxfile>
